<mxfile host="Electron" agent="Mozilla/5.0 (Windows NT 10.0; Win64; x64) AppleWebKit/537.36 (KHTML, like Gecko) draw.io/24.7.8 Chrome/128.0.6613.36 Electron/32.0.1 Safari/537.36" version="24.7.8">
  <diagram name="Pagina-1" id="6nrOtBK-gLPiO2T4WWDE">
    <mxGraphModel dx="1235" dy="740" grid="1" gridSize="10" guides="1" tooltips="1" connect="1" arrows="1" fold="1" page="1" pageScale="1" pageWidth="827" pageHeight="1169" math="0" shadow="0">
      <root>
        <mxCell id="0" />
        <mxCell id="1" parent="0" />
        <mxCell id="desF-REAzcWP2beLMydC-11" style="edgeStyle=orthogonalEdgeStyle;rounded=0;orthogonalLoop=1;jettySize=auto;html=1;entryX=0.5;entryY=1;entryDx=0;entryDy=0;endArrow=doubleBlock;endFill=1;" parent="1" source="desF-REAzcWP2beLMydC-1" target="desF-REAzcWP2beLMydC-5" edge="1">
          <mxGeometry relative="1" as="geometry" />
        </mxCell>
        <mxCell id="desF-REAzcWP2beLMydC-24" style="edgeStyle=orthogonalEdgeStyle;rounded=0;orthogonalLoop=1;jettySize=auto;html=1;entryX=0;entryY=0.5;entryDx=0;entryDy=0;" parent="1" source="desF-REAzcWP2beLMydC-1" target="desF-REAzcWP2beLMydC-19" edge="1">
          <mxGeometry relative="1" as="geometry" />
        </mxCell>
        <mxCell id="desF-REAzcWP2beLMydC-25" style="edgeStyle=orthogonalEdgeStyle;rounded=0;orthogonalLoop=1;jettySize=auto;html=1;entryX=0;entryY=0.5;entryDx=0;entryDy=0;" parent="1" source="desF-REAzcWP2beLMydC-1" target="desF-REAzcWP2beLMydC-23" edge="1">
          <mxGeometry relative="1" as="geometry" />
        </mxCell>
        <mxCell id="desF-REAzcWP2beLMydC-26" style="edgeStyle=orthogonalEdgeStyle;rounded=0;orthogonalLoop=1;jettySize=auto;html=1;entryX=0;entryY=0.5;entryDx=0;entryDy=0;" parent="1" source="desF-REAzcWP2beLMydC-1" target="desF-REAzcWP2beLMydC-21" edge="1">
          <mxGeometry relative="1" as="geometry" />
        </mxCell>
        <mxCell id="desF-REAzcWP2beLMydC-31" style="edgeStyle=orthogonalEdgeStyle;rounded=0;orthogonalLoop=1;jettySize=auto;html=1;entryX=0;entryY=0.5;entryDx=0;entryDy=0;" parent="1" source="desF-REAzcWP2beLMydC-1" target="desF-REAzcWP2beLMydC-22" edge="1">
          <mxGeometry relative="1" as="geometry" />
        </mxCell>
        <mxCell id="desF-REAzcWP2beLMydC-1" value="Utente" style="rounded=0;whiteSpace=wrap;html=1;" parent="1" vertex="1">
          <mxGeometry x="60" y="330" width="120" height="60" as="geometry" />
        </mxCell>
        <mxCell id="desF-REAzcWP2beLMydC-17" style="edgeStyle=orthogonalEdgeStyle;rounded=0;orthogonalLoop=1;jettySize=auto;html=1;entryX=0.5;entryY=1;entryDx=0;entryDy=0;endArrow=doubleBlock;endFill=1;" parent="1" source="desF-REAzcWP2beLMydC-2" target="desF-REAzcWP2beLMydC-9" edge="1">
          <mxGeometry relative="1" as="geometry" />
        </mxCell>
        <mxCell id="desF-REAzcWP2beLMydC-42" style="edgeStyle=orthogonalEdgeStyle;rounded=0;orthogonalLoop=1;jettySize=auto;html=1;entryX=0;entryY=0.5;entryDx=0;entryDy=0;" parent="1" source="desF-REAzcWP2beLMydC-2" target="desF-REAzcWP2beLMydC-34" edge="1">
          <mxGeometry relative="1" as="geometry" />
        </mxCell>
        <mxCell id="desF-REAzcWP2beLMydC-43" style="edgeStyle=orthogonalEdgeStyle;rounded=0;orthogonalLoop=1;jettySize=auto;html=1;entryX=0;entryY=0.5;entryDx=0;entryDy=0;" parent="1" source="desF-REAzcWP2beLMydC-2" target="desF-REAzcWP2beLMydC-37" edge="1">
          <mxGeometry relative="1" as="geometry" />
        </mxCell>
        <mxCell id="desF-REAzcWP2beLMydC-44" style="edgeStyle=orthogonalEdgeStyle;rounded=0;orthogonalLoop=1;jettySize=auto;html=1;entryX=0;entryY=0.5;entryDx=0;entryDy=0;" parent="1" source="desF-REAzcWP2beLMydC-2" target="desF-REAzcWP2beLMydC-35" edge="1">
          <mxGeometry relative="1" as="geometry" />
        </mxCell>
        <mxCell id="desF-REAzcWP2beLMydC-45" style="edgeStyle=orthogonalEdgeStyle;rounded=0;orthogonalLoop=1;jettySize=auto;html=1;entryX=0;entryY=0.5;entryDx=0;entryDy=0;" parent="1" source="desF-REAzcWP2beLMydC-2" target="desF-REAzcWP2beLMydC-36" edge="1">
          <mxGeometry relative="1" as="geometry" />
        </mxCell>
        <mxCell id="desF-REAzcWP2beLMydC-2" value="Libro" style="rounded=0;whiteSpace=wrap;html=1;" parent="1" vertex="1">
          <mxGeometry x="630" y="330" width="120" height="60" as="geometry" />
        </mxCell>
        <mxCell id="desF-REAzcWP2beLMydC-15" style="edgeStyle=orthogonalEdgeStyle;rounded=0;orthogonalLoop=1;jettySize=auto;html=1;entryX=1;entryY=0.5;entryDx=0;entryDy=0;" parent="1" source="desF-REAzcWP2beLMydC-3" target="desF-REAzcWP2beLMydC-5" edge="1">
          <mxGeometry relative="1" as="geometry" />
        </mxCell>
        <mxCell id="desF-REAzcWP2beLMydC-16" style="edgeStyle=orthogonalEdgeStyle;rounded=0;orthogonalLoop=1;jettySize=auto;html=1;entryX=0;entryY=0.5;entryDx=0;entryDy=0;" parent="1" source="desF-REAzcWP2beLMydC-3" target="desF-REAzcWP2beLMydC-9" edge="1">
          <mxGeometry relative="1" as="geometry" />
        </mxCell>
        <mxCell id="desF-REAzcWP2beLMydC-64" style="edgeStyle=orthogonalEdgeStyle;rounded=0;orthogonalLoop=1;jettySize=auto;html=1;entryX=0;entryY=0.5;entryDx=0;entryDy=0;" parent="1" source="desF-REAzcWP2beLMydC-3" target="desF-REAzcWP2beLMydC-55" edge="1">
          <mxGeometry relative="1" as="geometry" />
        </mxCell>
        <mxCell id="desF-REAzcWP2beLMydC-65" style="edgeStyle=orthogonalEdgeStyle;rounded=0;orthogonalLoop=1;jettySize=auto;html=1;entryX=0;entryY=0.5;entryDx=0;entryDy=0;" parent="1" source="desF-REAzcWP2beLMydC-3" target="desF-REAzcWP2beLMydC-58" edge="1">
          <mxGeometry relative="1" as="geometry" />
        </mxCell>
        <mxCell id="desF-REAzcWP2beLMydC-66" style="edgeStyle=orthogonalEdgeStyle;rounded=0;orthogonalLoop=1;jettySize=auto;html=1;entryX=0;entryY=0.5;entryDx=0;entryDy=0;" parent="1" source="desF-REAzcWP2beLMydC-3" target="desF-REAzcWP2beLMydC-56" edge="1">
          <mxGeometry relative="1" as="geometry" />
        </mxCell>
        <mxCell id="desF-REAzcWP2beLMydC-67" style="edgeStyle=orthogonalEdgeStyle;rounded=0;orthogonalLoop=1;jettySize=auto;html=1;entryX=0;entryY=0.5;entryDx=0;entryDy=0;" parent="1" source="desF-REAzcWP2beLMydC-3" target="desF-REAzcWP2beLMydC-57" edge="1">
          <mxGeometry relative="1" as="geometry" />
        </mxCell>
        <mxCell id="desF-REAzcWP2beLMydC-3" value="Prestito" style="rounded=0;whiteSpace=wrap;html=1;" parent="1" vertex="1">
          <mxGeometry x="350" y="100" width="120" height="60" as="geometry" />
        </mxCell>
        <mxCell id="desF-REAzcWP2beLMydC-5" value="Prende" style="rhombus;whiteSpace=wrap;html=1;" parent="1" vertex="1">
          <mxGeometry x="80" y="90" width="80" height="80" as="geometry" />
        </mxCell>
        <mxCell id="desF-REAzcWP2beLMydC-9" value="Preso" style="rhombus;whiteSpace=wrap;html=1;" parent="1" vertex="1">
          <mxGeometry x="650" y="90" width="80" height="80" as="geometry" />
        </mxCell>
        <mxCell id="desF-REAzcWP2beLMydC-10" value="" style="endArrow=none;html=1;rounded=0;" parent="1" edge="1">
          <mxGeometry width="50" height="50" relative="1" as="geometry">
            <mxPoint x="80" y="300" as="sourcePoint" />
            <mxPoint x="150" y="300" as="targetPoint" />
          </mxGeometry>
        </mxCell>
        <mxCell id="desF-REAzcWP2beLMydC-18" value="" style="endArrow=none;html=1;rounded=0;" parent="1" edge="1">
          <mxGeometry width="50" height="50" relative="1" as="geometry">
            <mxPoint x="660" y="300" as="sourcePoint" />
            <mxPoint x="730" y="300" as="targetPoint" />
          </mxGeometry>
        </mxCell>
        <mxCell id="desF-REAzcWP2beLMydC-19" value="" style="ellipse;whiteSpace=wrap;html=1;aspect=fixed;fillColor=#330000;" parent="1" vertex="1">
          <mxGeometry x="156" y="430" width="30" height="30" as="geometry" />
        </mxCell>
        <mxCell id="desF-REAzcWP2beLMydC-21" value="" style="ellipse;whiteSpace=wrap;html=1;aspect=fixed;" parent="1" vertex="1">
          <mxGeometry x="156" y="510" width="30" height="30" as="geometry" />
        </mxCell>
        <mxCell id="desF-REAzcWP2beLMydC-22" value="" style="ellipse;whiteSpace=wrap;html=1;aspect=fixed;" parent="1" vertex="1">
          <mxGeometry x="156" y="560" width="30" height="30" as="geometry" />
        </mxCell>
        <mxCell id="desF-REAzcWP2beLMydC-23" value="" style="ellipse;whiteSpace=wrap;html=1;aspect=fixed;" parent="1" vertex="1">
          <mxGeometry x="156" y="470" width="30" height="30" as="geometry" />
        </mxCell>
        <mxCell id="desF-REAzcWP2beLMydC-27" value="ID _utente" style="text;html=1;align=center;verticalAlign=middle;whiteSpace=wrap;rounded=0;" parent="1" vertex="1">
          <mxGeometry x="196" y="430" width="60" height="30" as="geometry" />
        </mxCell>
        <mxCell id="desF-REAzcWP2beLMydC-28" value="Nome" style="text;html=1;align=center;verticalAlign=middle;whiteSpace=wrap;rounded=0;" parent="1" vertex="1">
          <mxGeometry x="196" y="470" width="60" height="30" as="geometry" />
        </mxCell>
        <mxCell id="desF-REAzcWP2beLMydC-29" value="Cognome" style="text;html=1;align=center;verticalAlign=middle;whiteSpace=wrap;rounded=0;" parent="1" vertex="1">
          <mxGeometry x="196" y="510" width="60" height="30" as="geometry" />
        </mxCell>
        <mxCell id="desF-REAzcWP2beLMydC-30" value="Email" style="text;html=1;align=center;verticalAlign=middle;whiteSpace=wrap;rounded=0;" parent="1" vertex="1">
          <mxGeometry x="196" y="555" width="60" height="30" as="geometry" />
        </mxCell>
        <mxCell id="desF-REAzcWP2beLMydC-34" value="" style="ellipse;whiteSpace=wrap;html=1;aspect=fixed;fillColor=#330000;" parent="1" vertex="1">
          <mxGeometry x="710" y="425" width="30" height="30" as="geometry" />
        </mxCell>
        <mxCell id="desF-REAzcWP2beLMydC-35" value="" style="ellipse;whiteSpace=wrap;html=1;aspect=fixed;" parent="1" vertex="1">
          <mxGeometry x="710" y="505" width="30" height="30" as="geometry" />
        </mxCell>
        <mxCell id="desF-REAzcWP2beLMydC-36" value="" style="ellipse;whiteSpace=wrap;html=1;aspect=fixed;" parent="1" vertex="1">
          <mxGeometry x="710" y="550" width="30" height="30" as="geometry" />
        </mxCell>
        <mxCell id="desF-REAzcWP2beLMydC-37" value="" style="ellipse;whiteSpace=wrap;html=1;aspect=fixed;" parent="1" vertex="1">
          <mxGeometry x="710" y="465" width="30" height="30" as="geometry" />
        </mxCell>
        <mxCell id="desF-REAzcWP2beLMydC-38" value="ID Libro" style="text;html=1;align=center;verticalAlign=middle;whiteSpace=wrap;rounded=0;" parent="1" vertex="1">
          <mxGeometry x="750" y="425" width="60" height="30" as="geometry" />
        </mxCell>
        <mxCell id="desF-REAzcWP2beLMydC-39" value="Titolo" style="text;html=1;align=center;verticalAlign=middle;whiteSpace=wrap;rounded=0;" parent="1" vertex="1">
          <mxGeometry x="750" y="465" width="60" height="30" as="geometry" />
        </mxCell>
        <mxCell id="desF-REAzcWP2beLMydC-40" value="Anno_pubblicazione" style="text;html=1;align=center;verticalAlign=middle;whiteSpace=wrap;rounded=0;" parent="1" vertex="1">
          <mxGeometry x="780" y="500" width="60" height="30" as="geometry" />
        </mxCell>
        <mxCell id="desF-REAzcWP2beLMydC-41" value="Disponibilità" style="text;html=1;align=center;verticalAlign=middle;whiteSpace=wrap;rounded=0;" parent="1" vertex="1">
          <mxGeometry x="760" y="550" width="60" height="30" as="geometry" />
        </mxCell>
        <mxCell id="desF-REAzcWP2beLMydC-55" value="" style="ellipse;whiteSpace=wrap;html=1;aspect=fixed;fillColor=#330000;" parent="1" vertex="1">
          <mxGeometry x="440" y="180" width="30" height="30" as="geometry" />
        </mxCell>
        <mxCell id="desF-REAzcWP2beLMydC-56" value="" style="ellipse;whiteSpace=wrap;html=1;aspect=fixed;" parent="1" vertex="1">
          <mxGeometry x="440" y="260" width="30" height="30" as="geometry" />
        </mxCell>
        <mxCell id="desF-REAzcWP2beLMydC-57" value="" style="ellipse;whiteSpace=wrap;html=1;aspect=fixed;" parent="1" vertex="1">
          <mxGeometry x="440" y="310" width="30" height="30" as="geometry" />
        </mxCell>
        <mxCell id="desF-REAzcWP2beLMydC-58" value="" style="ellipse;whiteSpace=wrap;html=1;aspect=fixed;" parent="1" vertex="1">
          <mxGeometry x="440" y="220" width="30" height="30" as="geometry" />
        </mxCell>
        <mxCell id="desF-REAzcWP2beLMydC-59" value="ID Libro" style="text;html=1;align=center;verticalAlign=middle;whiteSpace=wrap;rounded=0;" parent="1" vertex="1">
          <mxGeometry x="480" y="180" width="60" height="30" as="geometry" />
        </mxCell>
        <mxCell id="desF-REAzcWP2beLMydC-60" value="Traccia Libro" style="text;html=1;align=center;verticalAlign=middle;whiteSpace=wrap;rounded=0;" parent="1" vertex="1">
          <mxGeometry x="480" y="220" width="60" height="30" as="geometry" />
        </mxCell>
        <mxCell id="desF-REAzcWP2beLMydC-61" value="Data_consegna" style="text;html=1;align=center;verticalAlign=middle;whiteSpace=wrap;rounded=0;" parent="1" vertex="1">
          <mxGeometry x="490" y="260" width="60" height="30" as="geometry" />
        </mxCell>
        <mxCell id="desF-REAzcWP2beLMydC-68" value="Data_ritiro" style="text;html=1;align=center;verticalAlign=middle;whiteSpace=wrap;rounded=0;" parent="1" vertex="1">
          <mxGeometry x="490" y="310" width="60" height="30" as="geometry" />
        </mxCell>
      </root>
    </mxGraphModel>
  </diagram>
</mxfile>
